<svg id="home" xmlns="http://www.w3.org/2000/svg" viewBox="0 0 53.93 49.75"><defs><style>.cls-1{fill:#2573b5;}</style></defs><title>cat-icon</title><path class="cls-1" d="M0,27.75c1.43-.06,3.21.37,4.19-.33.82-.58.7-2.48,1-3.78C7.63,14.81,13.28,9.29,22.13,7c.52-.14,1.05-.25,1.57-.39.1,0,.19-.13.44-.32a34.43,34.43,0,0,1-.7-3.92A2,2,0,0,1,24.29.83,5.19,5.19,0,0,1,29.68.68c1,.51,1.19,1,.95,1.94-.31,1.21-.51,2.44-.78,3.81.84.23,1.57.45,2.3.63A22.18,22.18,0,0,1,49.19,26c.18,1.46.69,1.77,2,1.74,2.94-.05,2.94,0,2.59,3.38-.66,0-1.35.13-2,.13q-24.81,0-49.62,0A19.13,19.13,0,0,1,0,31Z"/><path class="cls-1" d="M43,49.75C40.07,45.2,35.71,45,31.25,45.48a17.32,17.32,0,0,1-16-6.17,38.37,38.37,0,0,0-3.46-3.15c-.88-.79-1.52-1.71-.58-2.78s2-.6,3,.25c1.56,1.4,3.17,2.75,4.69,4.21A7.55,7.55,0,0,0,24,40c2.1.06,4.2.13,6.3,0,.58,0,1.12-.74,1.67-1.14-.59-.38-1.16-1-1.77-1.08-2.09-.14-4.19-.07-6.29-.06-1.26,0-2.4-.25-2.37-1.79s1.12-1.7,2.29-1.7c4.56,0,9.12,0,13.68,0a8.36,8.36,0,0,1,5.88,2.37c2.18,2.12,4.3,4.3,6.62,6.62Z"/></svg>