<svg id="home" xmlns="http://www.w3.org/2000/svg" viewBox="0 0 44.34 44"><defs><style>.cls-1{fill:#2573b5;}</style></defs><title>cat-icon</title><path class="cls-1" d="M1.77,44a10.19,10.19,0,0,1-.29-1.71c0-7,0-14,0-21,0-.24,0-.49,0-.74,0-1.08.53-1.85,1.66-1.86s1.64.74,1.69,1.83c0,.34,0,.69,0,1V32.5c0,.53,0,1.06.08,1.75h35.7c2.41,0,2.2-.23,2.17,2.26s-.15,5-.24,7.49H39.6c-.07-1.76-.18-3.52-.18-5.29,0-1-.31-1.29-1.27-1.29q-16,0-32,0c-1,0-1.31.3-1.29,1.28,0,1.76-.05,3.53-.09,5.3Z"/><path class="cls-1" d="M0,10.9Q10.77,5.51,21.54.15A1.43,1.43,0,0,1,22.63.08C29.82,3.63,37,7.2,44.34,10.86l-1.88,3.66-9-4.44C30.1,8.4,26.69,6.73,23.32,5A2.29,2.29,0,0,0,21,5C15.1,8,9.16,10.86,3.29,13.86c-1.19.61-1.74.45-2.19-.75A13.49,13.49,0,0,0,0,11.2Z"/><path class="cls-1" d="M25.22,31.7H9.87c-.45,0-1,.15-1.31-.05-.57-.34-1.45-1-1.39-1.33a2.16,2.16,0,0,1,1.37-1.51,29.17,29.17,0,0,1,4.86-.08c1.1.05,1.52-.37,1.42-1.46-.06-.78,0-1.57,0-2.36,0-1.82.54-2.3,2.33-2.12,6.37.62,12.73,1.27,19.1,1.91,1.32.13,2.65.23,4,.41A2.64,2.64,0,0,1,42.85,28c.1,3.66.1,3.66-3.6,3.66Z"/><path class="cls-1" d="M7,24a3,3,0,0,1,6,.11,3.08,3.08,0,0,1-3.16,3A3,3,0,0,1,7,24Z"/></svg>