<svg id="home" xmlns="http://www.w3.org/2000/svg" viewBox="0 0 40.39 50.14"><defs><style>.cls-1{fill:#2573b5;}</style></defs><title>cat-icon</title><path class="cls-1" d="M11.11,0l1.61,3.27c1.35-.54,2.42-2.69,4.45-1.42C18.45.39,19.61.21,21.83,1.48a5.07,5.07,0,0,0,3.75.66A6.6,6.6,0,0,1,32,3.88,24.4,24.4,0,0,1,34.41,7.8l-.4.25a25.3,25.3,0,0,1,4,1.16,3.68,3.68,0,0,1,1.41,6c-1.86,2.3-6.78,3.71-9.55,2.72a2.13,2.13,0,0,1-.91-.42c-1.32-1.5-2.93-1.63-4.86-1.6-1.22,0-2.46-1.17-3.76-1.85-.76,1.81-2.2,3.75-4.6,4-1.78.19-3.67,1.31-5.51.33l-.09-.62c1.46-.29,2.92-.59,4.39-.87.49-.09,1.07,0,1.47-.2,3.34-2,3.95-3.1,1.15-5.55a15.63,15.63,0,0,0-2.4-1.82C13.5,8.56,12.17,8,10.82,9a5.12,5.12,0,0,0-2.14,4.5,1.73,1.73,0,0,0,.6,1.13c1.14.94,4.9-.26,5.23-1.72a1.86,1.86,0,0,0-.74-1.47c-.37-.29-1-.19-1.57-.26l-.13.52,1,.92v.54c-.7,0-1.56.34-2.05,0a1.92,1.92,0,0,1-.2-1.85c.48-.71,1.53-1.72,2.05-1.57a5.53,5.53,0,0,1,2.81,2,2.62,2.62,0,0,1-.47,2.36,5.49,5.49,0,0,1-5.91,1.84c-1-.29-1.66-1.65-2.62-2.67L6,13.85a3.92,3.92,0,0,1-4.83-.23A5.2,5.2,0,0,1,.46,8.29a1.82,1.82,0,0,1,.89-.51,9.87,9.87,0,0,0,1.24-.36A2.53,2.53,0,0,0,4,4.33c-.33-1.72.66-3,2.25-3.72C6.65.43,7,.21,7.41,0ZM28.36,15.15c2,3.57,9.57,1,10.47-1.51,0-.1.07-.21.1-.31.47-1.63-.57-2.87-2.94-3.52s-4.51.07-4.75,1.53c-.06.39.44,1.05.85,1.29s1,0,1.81,0L32.57,11.5,32.7,11a14.56,14.56,0,0,1,2.39.25c.3.09.75.87.66,1-.45.58-1,1.39-1.6,1.5a25.89,25.89,0,0,1-4.28.07Zm-6.63-3.41a1.53,1.53,0,0,0-.06.5c.42,2.26,2.42,3.13,5,2,.91-.41,2.07-1.38,2.15-2.19a3.73,3.73,0,0,0-1.58-2.67c-2.58-1.95-6.52-1.44-9,1l2,2.21c.22-1.66.61-3,2.24-3a13.26,13.26,0,0,1,3.72.77c.43.14.66.89,1,1.36-.48.32-1,.95-1.45.9A32.59,32.59,0,0,1,21.73,11.74ZM9,8.79c2.39-1.8,2.64-2.32,1.88-4.24a11.74,11.74,0,0,1-2.7.76c-.56,0-1.14-.59-1.71-.92A17.53,17.53,0,0,1,8.28,2c.22-.22,1,.1,1.49.18l-.09.44L8.14,3.67l.33.49a11.28,11.28,0,0,0,2-1.28c.61-.59.45-1.46-.45-1.44a9.24,9.24,0,0,0-3.84.8C4.78,3,4.88,5.62,6.06,6.44,7,7.11,7.91,7.91,9,8.79ZM16,3l-.49-.26A27.06,27.06,0,0,0,13.25,5c-1.2,1.48-1,1.9.71,2.53a4.77,4.77,0,0,1,1.51.71c1.5,1.38,2.66.44,4.22-.52A5.25,5.25,0,0,1,16,3Zm8.69.74A15.92,15.92,0,0,0,24.85,6a1.79,1.79,0,0,0,.69,1.06c1.52,1,3.09,1.84,4.84,2.87l.51-.58c-1.59-1.09-3.1-2-4.47-3.12A1.79,1.79,0,0,1,26,4.63c.1-.32.91-.55,1.41-.56a3.43,3.43,0,0,1,3.39,2.68c.3,1.47,1,1,1.73.59C32.06,4.23,27.91,2.36,24.73,3.75ZM1.36,11.88a6.8,6.8,0,0,0,1.37,1.23c1.35.62,3.33-.34,4.05-2.1a3.3,3.3,0,0,0,0-2.49,2.14,2.14,0,0,0-1.93-.84A5.14,5.14,0,0,0,2.9,9.53a1.23,1.23,0,0,0,.2,1.15c.19.19.73,0,1,0l.09-1.93c.26.05.67,0,.73.15a4.11,4.11,0,0,1,.63,1.93A1.82,1.82,0,0,1,4.28,12,13.72,13.72,0,0,1,1.36,11.88ZM17.78,4C18.09,5.52,19,6.36,21,6.72c1,.19,2.17.25,2.51-1S23.13,3.7,22,3.2C21.34,5.88,20.46,6,17.78,4Z"/><path class="cls-1" d="M35.81,19,28.67,25.3c-1.09,1-2.2,1.9-3.28,2.88a7.45,7.45,0,0,1-10.68-.37l-11-11.1c-.34-.35-.66-.72-1-1.12,2.3-.71,3.39-.38,4.63,1.32.43.59.9,1.14,1.35,1.71,1,1.27,2.16,1.89,3.8,1.13a3.12,3.12,0,0,1,1.8-.26,5.67,5.67,0,0,0,5.43-1.95,1.53,1.53,0,0,1,2.18-.29,2.87,2.87,0,0,0,1.75.47c2.22-.41,4.05.74,6.06,1.18S33.64,19,35.81,19Z"/><path class="cls-1" d="M24.28,44.35a20,20,0,0,1-1.87-1,2.24,2.24,0,0,0-3,.14c-1.39,1.15-5.35.45-6.41-1a1.36,1.36,0,0,1,0-1.07c1.06-2.76,2.14-5.52,3.31-8.24a1.63,1.63,0,0,1,1.25-.7,27.1,27.1,0,0,1,4.32.27,2.44,2.44,0,0,1,1.6,1C24.67,36.1,25.79,38.54,27,41,27.71,42.55,26.48,44.39,24.28,44.35Z"/><path class="cls-1" d="M15.92,31.11a5.09,5.09,0,0,1-.75,1.63,11.42,11.42,0,0,0-3.35,7.31C11.43,43.9,9.21,47,7.25,50.14L5.1,48.67c.72-1.31,1.55-2.74,2.29-4.21A24.56,24.56,0,0,0,10.3,36c.31-2.92,2.75-4.09,5.08-5.15Z"/><path class="cls-1" d="M25,28.94c1.86-1.14,3.66-2.41,5.6-3.4,1.41-.72,2.73-.11,3.7,1.1a4.1,4.1,0,0,1,.2,4.57,2.72,2.72,0,0,1-3.34,1.19c-1.36-.33-2.74-.61-4.11-.91l.07-.45a16.18,16.18,0,0,0,3.05-.22,8.55,8.55,0,0,0,2.12-1.25,6.45,6.45,0,0,0-2.24-.8,42.84,42.84,0,0,0-4.74.75Z"/><path class="cls-1" d="M14,29.94c-.92.48-1.46.75-2,1a5.57,5.57,0,0,0-3.18,5.63A8.15,8.15,0,0,1,7,42.49l-1-.71c.19-1.71.35-3.2.5-4.69a1,1,0,0,0,0-.17C6.24,31.64,8.16,29.74,14,29.94Z"/><path class="cls-1" d="M29.5,32.64l3.36.76c-.61,2.51-3.08,4.58-5,4.34-1.56-.19-2.94-2.35-3.09-4.9a14,14,0,0,0,2.67,1.89C29.13,35.41,29,33.7,29.5,32.64Z"/></svg>