<svg id="home" xmlns="http://www.w3.org/2000/svg" viewBox="0 0 50.28 50.3"><defs><style>.cls-1{fill:#2573b5;}</style></defs><title>cat-icon</title><path class="cls-1" d="M0,21.45c.32-1.12.63-2.24,1-3.37A22.64,22.64,0,0,1,7.13,7.7a5.89,5.89,0,0,1,1.48-1C.47,15.29-1.56,24.89,4.12,35.51,8.06,42.89,15,45.5,23.07,46c-.48-.49-1-1-1.43-1.47-3.28-3.61-5.64-7.67-4.5-12.72A16.17,16.17,0,0,1,20,25.65c2.92-3.8,6.25-7.28,9.32-11a28.76,28.76,0,0,0,3.54-5.06c1.76-3.41.07-6.76-3.62-7.82-5.22-1.49-10.17-.53-15,1.45a1.39,1.39,0,0,1-.73.14A20.54,20.54,0,0,1,28.13.29,55.16,55.16,0,0,1,35.26,2.1C39,3.25,40.57,5.52,40.17,9.4a41.3,41.3,0,0,1-1.27,5.53c-.15.59-.43,1.16-.57,1.75-.49,2-.11,2.48,2.16,2.3-.29.38-.61.63-.68.93-.13.6-.41,1.48-.13,1.82A21.58,21.58,0,0,0,43,25c1.12.88,1.23,1.33.2,2.35-.67.66-1.26,1.39-1.89,2.09.72.6,1.44,1.19,2.16,1.8.16.14.3.31.63.66L42.19,33l2,1.73c-2.34.58-2.29,2-2,3.69s-.37,2.08-2.06,1.91c-3.24-.31-6.5-.59-9.55.89A45,45,0,0,0,26.16,44c-3.59-2.46-4.31-6.64-5.41-10.88C18.6,40.1,22.07,47.35,33.88,48.74l-5,1.56H21.46c-1-.32-2-.63-3-1C11.22,46.89,5.19,43,2.26,35.5,1.29,33,.74,30.39,0,27.83Z"/><path class="cls-1" d="M17.78,7.35V6.68c0-1.95,1.53-2.92,3.36-2.07.29.13.49.69.52,1.07a17.8,17.8,0,0,1,0,3c-.13,1.3.44,1.7,1.64,1.59a19.23,19.23,0,0,1,2,0,2.21,2.21,0,0,1,2,3.41c-.18.31-.83.46-1.27.5-1.38.12-3.26-.35-4,.38s-.43,2.6-.37,4c.08,1.64-1,1.44-2,1.43s-2,.2-2-1.44c.06-1.36.32-3.16-.4-4s-2.5-.38-3.82-.31S12,13.49,12.1,12.43s-.47-2.31,1.37-2.17c.44,0,.89,0,1.34,0C18.23,10.24,17.74,10.59,17.78,7.35Z"/><path class="cls-1" d="M44.19,9.25c9,11.71,8,25.33-3.08,34.3C49.19,32.74,50.74,21.37,44.19,9.25Z"/></svg>