<svg id="home" xmlns="http://www.w3.org/2000/svg" viewBox="0 0 44.25 44.21"><defs><style>.cls-1{fill:#2573b5;}</style></defs><title>cat-icon</title><path class="cls-1" d="M42.78,19.9a5,5,0,0,1-1.68,3.81c-3,2.92-6.74,3.79-10.73,4a1.17,1.17,0,0,1-.92-.57c-.87-1.73-1.67-3.51-2.55-5.39,1.91-.06,2.34-1.06,2.21-2.71-.14-1.84.06-3.71-.08-5.56a2.78,2.78,0,0,0-1-1.9A34.39,34.39,0,0,0,24.48,9.9a19.71,19.71,0,0,1-3-1.82c-1.17-.91-4.38-.82-5.47.24a5,5,0,0,1-1.53,1.12c-2.3.9-2.34.92-1.86,3.77l1.11-1a7.52,7.52,0,0,1,9.55-.56,7.36,7.36,0,0,1,2.46,9,2.52,2.52,0,0,0,0,2.37c2.48,5.42,4.93,10.86,7.31,16.33a17.77,17.77,0,0,1,1,3.9c.05.28-.53,1-.84,1-2.26.09-4.51,0-6.77.06-1.23,0-1.16-.91-1.29-1.65C24.59,39,24,35.34,23.39,31.74c0-.2-.06-.4-.1-.6-.47-2.12-.47-2.12-2.65-2.05l-1.95.07C15.6,29.22,13.93,28,13.12,25c-.23-.82-.28-1.68-.49-2.5-.16-.63-.43-1.24-.65-1.85l-.52.06a5.5,5.5,0,0,0-.24,1.47c.55,4.42-.57,8.68-1.26,13a18.19,18.19,0,0,1-1.07,4.05C8,41.29,6,42.05,3.31,41.57a3.6,3.6,0,0,1-3.3-4,14.62,14.62,0,0,1,1.28-5.32C3,28.54,5.09,25,6.92,21.3a2.84,2.84,0,0,0,0-2.16c-.83-1.82-1.84-3.56-2.8-5.31a2.74,2.74,0,0,1,.23-3C6.08,8,8.4,7.23,11.45,8.41c1.57.61,3.14.12,3.64-1.24,1.63-4.48,5-6.58,9.55-7.07,6.65-.71,12.6,2.44,14.92,8A10.75,10.75,0,0,1,40,15.49a4.07,4.07,0,0,0-.35,1.3,7.59,7.59,0,0,0,.52,3.05C40.37,20.19,41.73,19.9,42.78,19.9ZM24,17.63a5.16,5.16,0,1,0-5.12,5.18A5.15,5.15,0,0,0,24,17.63Z"/><path class="cls-1" d="M30.43,29.26c1.84-.31,3.51-.55,5.16-.87A6.93,6.93,0,0,0,38,27.67c1.39-.91,2.07-.23,2.94.79a13.25,13.25,0,0,1,3,8.31c.1,2,.13,4.1.25,6.15.06,1-.38,1.31-1.33,1.29-2,0-4.11,0-6.16-.05-.38,0-1.06-.49-1.07-.78-.17-3.21-1.74-5.94-2.92-8.79C32,32.84,31.25,31.13,30.43,29.26Z"/><path class="cls-1" d="M23.86,44.2c-2.53,0-4.73,0-6.92,0a2.55,2.55,0,0,1-1.48-.86c-1.7-1.83-1.79-4.07-1.38-6.36.33-1.82.84-3.61,1.22-5.42.16-.83.59-1,1.38-1a24.08,24.08,0,0,0,2.55,0c2.16-.05,2.23-.07,2.61,2C22.54,36.34,23.16,40.14,23.86,44.2Z"/></svg>