<svg id="home" xmlns="http://www.w3.org/2000/svg" viewBox="0 0 75.16 22.19"><defs><style>.cls-1{fill:#2573b5;}</style></defs><title>cat-icon</title><path class="cls-1" d="M0,9.12A15.07,15.07,0,0,1,3.47,7.78C8.63,7.14,13.83,6.72,19,6.09A8.64,8.64,0,0,0,22.93,4.8,24.16,24.16,0,0,1,39.27.05c5,.28,10.09.08,15.1.51a13.06,13.06,0,0,1,6.52,2.29A17.73,17.73,0,0,0,70.5,6.73c2.77.23,4,1.56,4.35,4.45.64,5.68.81,5.66-5.13,6.47l-4.32.58c-.16-1-.24-1.72-.4-2.44a6,6,0,0,0-6.1-4.64,5.58,5.58,0,0,0-5.38,5.34c0,2.26-.89,2.58-2.83,2.58-11,0-22,.18-33,.29-.91,0-1.81,0-2,0-1.21-2.64-1.92-4.92-3.23-6.78-.62-.88-2.35-1.31-3.6-1.38-3.43-.18-5.14,2-6.23,7.71L0,17.7ZM24.46,6.49H54c-.85-2.26-1.36-4.36-4.05-4.42C44.61,2,39.33,1.82,34,1.78,30.35,1.76,27.66,3.88,24.46,6.49Z"/><path class="cls-1" d="M13.75,17.05A5,5,0,0,1,9,22.19,5,5,0,0,1,8.8,12.1,5,5,0,0,1,13.75,17.05ZM8.88,20.79a3.75,3.75,0,0,0,3.63-3.72,3.84,3.84,0,0,0-3.69-3.69,3.77,3.77,0,0,0-3.61,3.75A3.7,3.7,0,0,0,8.88,20.79Z"/><path class="cls-1" d="M54.36,17.06a4.94,4.94,0,0,1,4.93-5,5,5,0,0,1-.17,10.09A5,5,0,0,1,54.36,17.06Zm5-3.68A3.82,3.82,0,0,0,55.6,17a3.65,3.65,0,1,0,7.29.12A3.75,3.75,0,0,0,59.32,13.38Z"/></svg>